HIERARCHY
ROOT Hips
{
	OFFSET -3.958830 18.904000 13.208200
	CHANNELS 6 Xposition Yposition Zposition Zrotation Yrotation Xrotation 
	JOINT LHipJoint
	{
		OFFSET 0.000000 0.000000 0.000000
		CHANNELS 3 Zrotation Yrotation Xrotation
		JOINT LeftUpLeg
		{
			OFFSET 1.800000 -1.400000 0.085000
			CHANNELS 3 Zrotation Yrotation Xrotation
			JOINT LeftLeg
			{
				OFFSET 2.215000 -6.000000 0.000000
				CHANNELS 3 Zrotation Yrotation Xrotation
				JOINT LeftFoot
				{
					OFFSET 2.500000 -6.900000 0.000000
					CHANNELS 3 Zrotation Yrotation Xrotation
					JOINT LeftToeBase
					{
						OFFSET 0.200000 -0.500000 1.950000
						CHANNELS 3 Zrotation Yrotation Xrotation
						End Site
						{
							OFFSET 0.000000 0.000000 0.000000
						}
					}
				}
			}
		}
	}
	JOINT RHipJoint
	{
		OFFSET 0.000000 0.000000 0.000000
		CHANNELS 3 Zrotation Yrotation Xrotation
		JOINT RightUpLeg
		{
			OFFSET -1.800000 -1.400000 0.085000
			CHANNELS 3 Zrotation Yrotation Xrotation
			JOINT RightLeg
			{
				OFFSET -2.215000 -6.000000 0.000000
				CHANNELS 3 Zrotation Yrotation Xrotation
				JOINT RightFoot
				{
					OFFSET -2.500000 -6.900000 0.000000
					CHANNELS 3 Zrotation Yrotation Xrotation
					JOINT RightToeBase
					{
						OFFSET -0.200000 -0.500000 1.950000
						CHANNELS 3 Zrotation Yrotation Xrotation
						End Site
						{
							OFFSET 0.000000 0.000000 0.000000
						}
					}
				}
			}
		}
	}
	JOINT LowerBack
	{
		OFFSET 0.000000 0.000000 0.000000
		CHANNELS 3 Zrotation Yrotation Xrotation
		JOINT Spine
		{
			OFFSET -0.087000 1.940000 -0.288900
			CHANNELS 3 Zrotation Yrotation Xrotation
			JOINT Spine1
			{
				OFFSET 0.000000 1.950000 0.060000
				CHANNELS 3 Zrotation Yrotation Xrotation
				JOINT Neck
				{
					OFFSET 0.000000 0.000000 0.000000
					CHANNELS 3 Zrotation Yrotation Xrotation
					JOINT Neck1
					{
						OFFSET 0.000000 1.600000 0.340000
						CHANNELS 3 Zrotation Yrotation Xrotation
						JOINT Head
						{
							OFFSET 0.000000 1.667000 -0.240000
							CHANNELS 3 Zrotation Yrotation Xrotation
							End Site
							{
								OFFSET 0.000000 0.000000 0.000000
							}
						}
					}
				}
				JOINT LeftShoulder
				{
					OFFSET 0.000000 0.000000 0.000000
					CHANNELS 3 Zrotation Yrotation Xrotation
					JOINT LeftArm
					{
						OFFSET 2.700000 1.550000 -0.730000
						CHANNELS 3 Zrotation Yrotation Xrotation
						JOINT LeftForeArm
						{
							OFFSET 5.450000 0.000000 0.000000
							CHANNELS 3 Zrotation Yrotation Xrotation
							JOINT LeftHand
							{
								OFFSET 3.450000 0.000000 0.000000
								CHANNELS 3 Zrotation Yrotation Xrotation
								JOINT LeftHandIndex1
								{
									OFFSET 0.750000 0.000000 0.000000
									CHANNELS 3 Zrotation Yrotation Xrotation
									End Site
									{
										OFFSET 0.000000 0.000000 0.000000
									}
								}
							}
						}
					}
				}
				JOINT RightShoulder
				{
					OFFSET 0.000000 0.000000 0.000000
					CHANNELS 3 Zrotation Yrotation Xrotation
					JOINT RightArm
					{
						OFFSET -2.700000 1.550000 -0.730000
						CHANNELS 3 Zrotation Yrotation Xrotation
						JOINT RightForeArm
						{
							OFFSET -5.450000 0.000000 0.000000
							CHANNELS 3 Zrotation Yrotation Xrotation
							JOINT RightHand
							{
								OFFSET -3.450000 0.000000 0.000000
								CHANNELS 3 Zrotation Yrotation Xrotation
								JOINT RightHandIndex1
								{
									OFFSET -0.750000 0.000000 0.000000
									CHANNELS 3 Zrotation Yrotation Xrotation
									End Site
									{
										OFFSET 0.000000 0.000000 0.000000
									}
								}
							}
						}
					}
				}
			}
		}
	}
}
MOTION
Frames: 9
Frame Time: 0.016667
-0.273520 17.466860 -4.874900 -0.879677 0.864222 1.132935 -15.175158 13.174943 2.960446 1.180474 -0.509194 -7.128255 -5.661161 4.618973 6.399728 -0.067984 3.699085 3.475299 -0.086440 -0.131230 -0.231950 18.223168 -10.854493 3.293974 -2.802629 -0.357027 -4.306251 11.319410 -4.487549 3.062858 -0.067251 -4.133972 3.076831 0.098440 0.528210 0.073470 -3.488966 -1.374436 -7.844640 4.714056 1.935337 8.729046 -1.903333 2.816982 -3.162325 0.891630 -2.348669 -8.629202 -6.480285 2.946440 37.517536 -0.576230 0.096530 10.234710 -8.150642 -7.087398 1.126093 8.981620 -8.167257 -2.105518 120.143772 -0.172226 4.104321 -4.274644 3.469994 -0.264920 0.423980 -0.400220 0.128240 6.790398 10.594736 4.573476 -7.389442 0.057711 -6.600727 -129.581804 -1.137393 3.510354 2.446060 -2.566924 -0.165090 0.130950 0.151100 0.071270 
-0.273070 17.467740 -4.873710 -0.789311 1.188693 1.067712 -15.182304 13.209383 2.986520 1.324817 -0.522197 -7.149241 -5.924388 4.677261 6.466045 -0.054026 3.707872 3.465762 -0.074150 -0.112790 -0.221790 18.202128 -10.866604 3.291829 -2.738445 -0.323128 -4.475535 11.259944 -4.514950 3.431132 -0.068981 -4.104275 3.086081 0.101430 0.512540 0.073660 -3.453170 -1.409762 -7.888160 4.420735 1.746331 9.017254 -1.780878 2.621835 -3.811647 0.922375 -2.394649 -8.775498 -6.609788 3.245650 38.262399 -0.608430 0.452100 10.318770 -8.250647 -7.045448 1.110516 7.444247 -8.461567 -2.065617 122.676973 0.134734 4.674569 -4.247827 3.504504 -0.260420 0.415800 -0.385910 0.130330 6.873924 10.666074 4.711375 -5.820396 1.412405 -6.317166 -132.571147 -0.468469 2.000818 2.409286 -2.609305 -0.155020 0.123950 0.139050 0.070910 
-0.260180 17.466020 -4.873750 -0.876199 1.829692 1.375736 -15.199109 13.267926 3.036302 1.471794 -0.634859 -7.625807 -6.164068 4.686819 6.479642 -0.035812 3.676855 3.472251 -0.075520 -0.114690 -0.212740 18.157997 -10.878835 3.303967 -2.545867 -0.186387 -5.124994 11.374890 -4.536327 3.958664 -0.055934 -4.031832 3.110195 0.087390 0.495290 0.075040 -3.375815 -1.475327 -7.984703 4.075344 1.745196 9.419137 -1.402643 2.565097 -5.481268 1.107448 -2.091903 -9.089269 -6.273422 2.921790 39.526939 -0.998550 0.402770 11.000410 -8.196058 -7.062779 1.211987 4.923262 -9.750225 -1.686801 126.400076 0.650060 5.941970 -4.214996 3.550024 -0.260470 0.408330 -0.372340 0.128650 6.555855 10.587373 4.858110 -3.509204 1.987703 -6.363566 -134.984966 -1.336348 3.668577 2.401000 -2.687263 -0.141870 0.110230 0.127650 0.072420 
-0.245080 17.474520 -4.870660 -0.912801 2.023501 1.193735 -15.197475 13.295165 3.065917 1.669598 -0.611838 -7.440498 -6.422450 4.750732 6.465226 -0.031059 3.714313 3.457522 -0.093220 -0.139340 -0.225900 18.141225 -10.908634 3.321323 -2.472915 -0.198130 -5.062954 11.173427 -4.535665 4.058189 -0.054169 -4.007078 3.122396 0.070690 0.494390 0.066130 -3.355626 -1.463022 -8.059132 3.862863 1.913876 9.795341 -1.362456 2.799424 -6.278814 1.065386 -1.895999 -9.432256 -6.209278 2.810489 41.233088 -0.712310 -0.036870 11.525000 -8.023135 -7.193757 1.424698 2.834351 -11.455144 -0.994011 128.143283 0.073440 5.072874 -4.184798 3.540647 -0.240900 0.397180 -0.368950 0.123730 6.511492 10.629706 5.034400 -1.170567 2.541249 -6.426193 -136.379651 -1.550523 3.890033 2.381120 -2.716183 -0.151160 0.118710 0.140890 0.070150 
-0.224870 17.473090 -4.872840 -0.916161 2.644653 0.400086 -15.221369 13.291671 3.051004 1.906866 -0.412430 -6.464530 -6.635558 4.839708 6.203901 -0.023001 3.817392 3.419412 -0.083970 -0.133760 -0.221330 18.134246 -10.876933 3.298562 -2.660763 -0.342414 -4.227251 11.086416 -4.603532 4.015466 -0.078849 -4.075916 3.093885 0.078160 0.485800 0.065920 -3.324004 -1.531418 -8.026496 3.719497 2.248919 9.975916 -1.317202 3.091276 -4.602704 1.093123 -1.686408 -9.451169 -6.104703 2.353700 41.427648 -0.426600 -0.837030 10.831860 -8.101787 -7.687894 1.747776 1.761131 -13.677986 -0.498934 126.304270 -1.507783 1.594441 -4.171806 3.481355 -0.226990 0.384820 -0.363330 0.118930 6.575683 10.837893 4.939208 -0.753800 1.811636 -7.234924 -135.161698 -2.170649 4.358574 2.385627 -2.719128 -0.152040 0.126110 0.147400 0.066290 
-0.209040 17.468120 -4.877290 -0.922942 3.330189 -0.922747 -15.262958 13.275228 3.013388 2.317110 -0.089316 -4.954066 -6.830538 4.956104 5.757425 -0.023039 3.969898 3.363474 -0.049570 -0.100550 -0.182710 18.130254 -10.803435 3.262886 -2.795888 -0.600069 -2.721512 10.899982 -4.693649 3.783040 -0.131052 -4.190332 3.048701 0.106510 0.458760 0.064130 -3.272177 -1.655829 -7.941821 3.638999 2.589786 10.262349 -1.065251 3.328089 -1.538997 1.103675 -1.613637 -9.192654 -6.191309 1.900295 41.090122 -0.646250 -1.227440 8.980380 -8.387604 -8.026395 1.876280 1.897798 -15.533187 -0.331753 122.638674 -4.114793 -3.482158 -4.162236 3.375355 -0.197550 0.366410 -0.342300 0.110360 6.835327 10.984065 4.776691 -1.127083 1.161326 -7.888738 -132.126428 -1.545910 2.009191 2.376371 -2.659400 -0.156460 0.144060 0.141430 0.047930 
-0.187570 17.451660 -4.892150 -0.981208 3.667162 -2.467042 -15.304595 13.255906 2.955718 2.705521 0.275158 -3.294561 -6.834298 5.096689 5.542431 -0.014639 4.124371 3.311803 0.002300 -0.036100 -0.132600 18.134093 -10.721592 3.213077 -3.069530 -0.874232 -1.049573 10.831166 -4.841755 3.702187 -0.195617 -4.340841 2.995688 0.151580 0.430170 0.061090 -3.226351 -1.785788 -7.806649 3.791266 2.609939 10.583029 -0.585819 3.178775 2.350643 1.067076 -1.988707 -8.677657 -6.827471 1.896050 40.285141 -1.288570 -0.878600 6.724380 -8.735829 -8.042794 1.661536 3.122371 -15.800155 -1.041367 116.522778 -7.061685 -8.131905 -4.159182 3.282266 -0.176150 0.352910 -0.314550 0.112730 7.189358 11.266602 4.624519 -3.170685 1.886401 -7.831804 -126.768156 1.055668 -3.224581 2.359032 -2.524591 -0.156380 0.167340 0.117690 0.032460 
-0.173230 17.431110 -4.886040 -1.002678 3.880683 -3.114496 -15.325904 13.187252 2.908510 2.873928 0.471560 -2.348160 -6.860142 5.121256 5.076457 -0.011105 4.190009 3.287289 0.052910 0.032110 -0.102800 18.157726 -10.661019 3.165412 -3.198092 -1.048852 -0.172413 10.767835 -4.892867 3.495595 -0.238558 -4.426148 2.962083 0.196610 0.409460 0.058560 -3.232337 -1.798873 -7.659763 3.817333 2.629557 10.052136 -0.248549 2.998044 4.983914 0.856825 -2.393164 -8.051104 -7.405462 1.851154 39.029525 -1.317800 -0.957390 4.782480 -8.419319 -7.292810 1.328077 4.652656 -15.442995 -1.423323 108.939618 -11.093095 -12.350143 -4.153258 3.220292 -0.169940 0.339160 -0.296270 0.122420 7.215864 10.762300 4.268691 -5.555281 2.033667 -7.472854 -120.915931 4.725887 -8.647377 2.350439 -2.403308 -0.147650 0.181420 0.094770 0.030370 
-0.159460 17.415090 -4.880300 -1.138024 3.669951 -3.435881 -15.316519 13.115318 2.867044 3.133955 0.565626 -1.844470 -7.092302 5.200041 4.962237 -0.010999 4.238710 3.264395 0.089830 0.079340 -0.082360 18.195145 -10.651906 3.135013 -3.231466 -1.153941 0.207308 10.710450 -4.919233 3.407550 -0.264015 -4.464759 2.946226 0.227340 0.389940 0.050860 -3.294890 -1.704912 -7.549295 4.041218 2.566812 9.499362 -0.275533 2.874057 6.468170 0.682772 -2.669287 -7.490612 -7.751587 2.016036 38.564500 -1.025560 -0.956370 3.521430 -8.092261 -6.094752 0.960436 6.240361 -13.932804 -1.249826 102.010519 -16.757184 -16.812707 -4.136380 3.158801 -0.159430 0.322520 -0.283490 0.128690 7.156415 9.748376 3.850915 -7.702163 2.432718 -6.635944 -114.470478 9.730312 -14.181969 2.344380 -2.272183 -0.143560 0.189590 0.077880 0.026160 
